<svg width="22" height="20" viewBox="0 0 22 20" fill="none" xmlns="http://www.w3.org/2000/svg">
<path d="M4.5 20C3.90905 20 3.32389 19.8836 2.77792 19.6575C2.23196 19.4313 1.73588 19.0998 1.31802 18.682C0.900156 18.2641 0.568688 17.768 0.342542 17.2221C0.116396 16.6761 0 16.0909 0 15.5C0 14.9091 0.116396 14.3239 0.342542 13.7779C0.568688 13.232 0.900156 12.7359 1.31802 12.318C1.73588 11.9002 2.23196 11.5687 2.77792 11.3425C3.32389 11.1164 3.90905 11 4.5 11C5.69347 11 6.83807 11.4741 7.68198 12.318C8.52589 13.1619 9 14.3065 9 15.5C9 16.6935 8.52589 17.8381 7.68198 18.682C6.83807 19.5259 5.69347 20 4.5 20ZM4.5 18C5.16304 18 5.79893 17.7366 6.26777 17.2678C6.73661 16.7989 7 16.163 7 15.5C7 14.837 6.73661 14.2011 6.26777 13.7322C5.79893 13.2634 5.16304 13 4.5 13C3.83696 13 3.20107 13.2634 2.73223 13.7322C2.26339 14.2011 2 14.837 2 15.5C2 16.163 2.26339 16.7989 2.73223 17.2678C3.20107 17.7366 3.83696 18 4.5 18ZM17.5 20C16.9091 20 16.3239 19.8836 15.7779 19.6575C15.232 19.4313 14.7359 19.0998 14.318 18.682C13.9002 18.2641 13.5687 17.768 13.3425 17.2221C13.1164 16.6761 13 16.0909 13 15.5C13 14.9091 13.1164 14.3239 13.3425 13.7779C13.5687 13.232 13.9002 12.7359 14.318 12.318C14.7359 11.9002 15.232 11.5687 15.7779 11.3425C16.3239 11.1164 16.9091 11 17.5 11C18.6935 11 19.8381 11.4741 20.682 12.318C21.5259 13.1619 22 14.3065 22 15.5C22 16.6935 21.5259 17.8381 20.682 18.682C19.8381 19.5259 18.6935 20 17.5 20ZM17.5 18C18.163 18 18.7989 17.7366 19.2678 17.2678C19.7366 16.7989 20 16.163 20 15.5C20 14.837 19.7366 14.2011 19.2678 13.7322C18.7989 13.2634 18.163 13 17.5 13C16.837 13 16.2011 13.2634 15.7322 13.7322C15.2634 14.2011 15 14.837 15 15.5C15 16.163 15.2634 16.7989 15.7322 17.2678C16.2011 17.7366 16.837 18 17.5 18ZM10.023 9.305L12 11V17H10V12L7.281 9.734C7.03904 9.56772 6.83666 9.35022 6.68822 9.09692C6.53977 8.84363 6.44892 8.56076 6.4221 8.26841C6.39528 7.97605 6.43315 7.68137 6.53303 7.4053C6.6329 7.12923 6.79233 6.87853 7 6.671L9.828 3.843C10.0137 3.6572 10.2342 3.50981 10.4769 3.40925C10.7197 3.30869 10.9798 3.25693 11.2425 3.25693C11.5052 3.25693 11.7653 3.30869 12.0081 3.40925C12.2508 3.50981 12.4713 3.6572 12.657 3.843L14.071 5.257C15.13 6.31982 16.5038 7.01248 17.988 7.232L17.978 9.247C15.9642 9.01516 14.0884 8.10742 12.657 6.672L10.023 9.305ZM15 4C14.4696 4 13.9609 3.78929 13.5858 3.41421C13.2107 3.03914 13 2.53043 13 2C13 1.46957 13.2107 0.960859 13.5858 0.585786C13.9609 0.210714 14.4696 0 15 0C15.5304 0 16.0391 0.210714 16.4142 0.585786C16.7893 0.960859 17 1.46957 17 2C17 2.53043 16.7893 3.03914 16.4142 3.41421C16.0391 3.78929 15.5304 4 15 4Z" fill="#FFA800"/>
</svg>
