<svg width="14" height="14" viewBox="0 0 14 14" fill="none" xmlns="http://www.w3.org/2000/svg">
<path d="M10.3333 1.66659H13C13.1768 1.66659 13.3464 1.73682 13.4714 1.86185C13.5964 1.98687 13.6667 2.15644 13.6667 2.33325V12.9999C13.6667 13.1767 13.5964 13.3463 13.4714 13.4713C13.3464 13.5963 13.1768 13.6666 13 13.6666H1.00001C0.823199 13.6666 0.65363 13.5963 0.528606 13.4713C0.403581 13.3463 0.333344 13.1767 0.333344 12.9999V2.33325C0.333344 2.15644 0.403581 1.98687 0.528606 1.86185C0.65363 1.73682 0.823199 1.66659 1.00001 1.66659H3.66668V0.333252H5.00001V1.66659H9.00001V0.333252H10.3333V1.66659ZM12.3333 6.99992H1.66668V12.3333H12.3333V6.99992ZM9.00001 2.99992H5.00001V4.33325H3.66668V2.99992H1.66668V5.66659H12.3333V2.99992H10.3333V4.33325H9.00001V2.99992ZM3.00001 8.33325H4.33334V9.66659H3.00001V8.33325ZM6.33334 8.33325H7.66668V9.66659H6.33334V8.33325ZM9.66668 8.33325H11V9.66659H9.66668V8.33325Z" fill="#878787"/>
</svg>
