<svg width="21" height="20" viewBox="0 0 21 20" fill="none" xmlns="http://www.w3.org/2000/svg">
<path d="M15.6667 2H19.6667C19.9319 2 20.1863 2.10536 20.3738 2.29289C20.5613 2.48043 20.6667 2.73478 20.6667 3V19C20.6667 19.2652 20.5613 19.5196 20.3738 19.7071C20.1863 19.8946 19.9319 20 19.6667 20H1.66669C1.40147 20 1.14712 19.8946 0.95958 19.7071C0.772044 19.5196 0.666687 19.2652 0.666687 19V3C0.666687 2.73478 0.772044 2.48043 0.95958 2.29289C1.14712 2.10536 1.40147 2 1.66669 2H5.66669V0H7.66669V2H13.6667V0H15.6667V2ZM2.66669 8V18H18.6667V8H2.66669ZM4.66669 12H9.66669V16H4.66669V12Z" fill="#FFA800"/>
</svg>
