<svg width="22" height="21" viewBox="0 0 22 21" fill="none" xmlns="http://www.w3.org/2000/svg">
<path d="M0.333374 21C0.333374 18.8783 1.17623 16.8434 2.67652 15.3431C4.17681 13.8429 6.21164 13 8.33337 13C10.4551 13 12.4899 13.8429 13.9902 15.3431C15.4905 16.8434 16.3334 18.8783 16.3334 21H14.3334C14.3334 19.4087 13.7012 17.8826 12.576 16.7574C11.4508 15.6321 9.92467 15 8.33337 15C6.74207 15 5.21595 15.6321 4.09073 16.7574C2.96552 17.8826 2.33337 19.4087 2.33337 21H0.333374ZM8.33337 12C5.01837 12 2.33337 9.315 2.33337 6C2.33337 2.685 5.01837 0 8.33337 0C11.6484 0 14.3334 2.685 14.3334 6C14.3334 9.315 11.6484 12 8.33337 12ZM8.33337 10C10.5434 10 12.3334 8.21 12.3334 6C12.3334 3.79 10.5434 2 8.33337 2C6.12337 2 4.33337 3.79 4.33337 6C4.33337 8.21 6.12337 10 8.33337 10ZM16.6174 13.703C18.0227 14.3359 19.2154 15.3612 20.052 16.6557C20.8886 17.9502 21.3335 19.4587 21.3334 21H19.3334C19.3336 19.844 18.9999 18.7125 18.3725 17.7416C17.745 16.7707 16.8505 16.0017 15.7964 15.527L16.6164 13.703H16.6174ZM15.9294 2.413C16.9369 2.8283 17.7983 3.53354 18.4044 4.43923C19.0104 5.34492 19.3338 6.41024 19.3334 7.5C19.3338 8.87233 18.8211 10.1952 17.8959 11.2088C16.9708 12.2224 15.7 12.8535 14.3334 12.978V10.965C15.0743 10.8589 15.7617 10.518 16.2947 9.99246C16.8276 9.4669 17.1781 8.78432 17.2945 8.04493C17.411 7.30555 17.2874 6.5483 16.9418 5.88435C16.5962 5.22041 16.0468 4.68475 15.3744 4.356L15.9294 2.413Z" fill="#FFA800"/>
</svg>
